# xmcd
#
# Track frame offsets: 
#        183
#        16175
#        29918
#        42273
#        60518
#        72055
#        85078
#        101728
#        116793
#        132190
#
# Disc length: 2004 seconds
#
# Revision: 6
# Processed by: cddbd v1.5.2PL0 Copyright (c) Steve Scherf et al.
# Submitted via: ExactAudioCopy v1.3
#
DISCID=8307d20a
DTITLE=Highway 101 - Paint the Town
DYEAR=1989
DGENRE=Country
TTITLE0=I Can't Love You Baby
TTITLE1=If Love had a Heart
TTITLE2=While You Slept Last Night
TTITLE3=This Side of Goodbye
TTITLE4=Walkin', Talkin', Cryin', Barely Beatin' Broken Heart
TTITLE5=I'll Paint the Town
TTITLE6=Rough and Tumble Heart
TTITLE7=Midnight Angel
TTITLE8=Who's Lonely Now
TTITLE9=Sweet Baby James
EXTD=(c)1989 Warner Bros. Records - WEA\nupc 075992599221\n\nProduced 
EXTD=by Paul Worley and Ed Seay\n
EXTT0=
EXTT1=
EXTT2=
EXTT3=
EXTT4=
EXTT5=
EXTT6=
EXTT7=
EXTT8=
EXTT9=
PLAYORDER=
